<?xml version="1.0" encoding="utf-8"?>
<!-- Generator: Adobe Illustrator 18.1.1, SVG Export Plug-In . SVG Version: 6.00 Build 0)  -->
<svg version="1.1" id="Dashboard_1_" xmlns="http://www.w3.org/2000/svg" xmlns:xlink="http://www.w3.org/1999/xlink" x="0px"
	 y="0px" viewBox="0 0 13.5 10.5" enable-background="new 0 0 13.5 10.5" xml:space="preserve">
<g id="Dashboard">
	<g>
		<path fill-rule="evenodd" clip-rule="evenodd" fill="#535353" d="M13,4.1c-0.4-0.8-0.8-1.5-1.4-2.1C11,1.4,10.2,0.9,9.4,0.5
			S7.7,0,6.8,0C5.9,0,5,0.2,4.1,0.5C3.3,0.9,2.6,1.4,2,2C1.4,2.6,0.9,3.3,0.5,4.1C0.2,4.9,0,5.8,0,6.7C0,8,0.4,9.2,1.1,10.3
			c0.1,0.1,0.2,0.2,0.4,0.2h10.6c0.2,0,0.3-0.1,0.4-0.2c0.7-1.1,1.1-2.3,1.1-3.6C13.5,5.8,13.4,4.9,13,4.1z M6.1,1.2
			C6.3,1,6.5,1,6.8,1S7.3,1,7.5,1.2c0.2,0.2,0.3,0.4,0.3,0.7c0,0.3-0.1,0.5-0.3,0.7C7.3,2.8,7,2.9,6.8,2.9S6.3,2.8,6.1,2.6
			C5.9,2.4,5.8,2.2,5.8,1.9C5.8,1.6,5.9,1.4,6.1,1.2z M2.6,7.4C2.4,7.6,2.2,7.6,1.9,7.6c-0.3,0-0.5-0.1-0.7-0.3C1.1,7.2,1,7,1,6.7
			S1.1,6.2,1.3,6s0.4-0.3,0.7-0.3c0.3,0,0.5,0.1,0.7,0.3s0.3,0.4,0.3,0.7S2.8,7.2,2.6,7.4z M4.1,4C3.9,4.2,3.7,4.3,3.4,4.3
			C3.1,4.3,2.9,4.2,2.7,4C2.5,3.8,2.4,3.6,2.4,3.3s0.1-0.5,0.3-0.7c0.2-0.2,0.4-0.3,0.7-0.3c0.3,0,0.5,0.1,0.7,0.3
			c0.2,0.2,0.3,0.4,0.3,0.7C4.4,3.6,4.3,3.8,4.1,4z M8.3,4.1L7.6,6.9C7.8,7.1,8,7.3,8.1,7.6c0.1,0.3,0.1,0.6,0,0.9
			C8.1,8.9,7.8,9.2,7.5,9.4C7.2,9.6,6.8,9.6,6.4,9.5C6,9.4,5.7,9.2,5.5,8.8C5.3,8.5,5.3,8.1,5.4,7.8C5.4,7.5,5.6,7.2,5.8,7
			c0.2-0.2,0.5-0.3,0.8-0.3l0.8-2.9c0-0.1,0.1-0.2,0.2-0.3c0.1-0.1,0.2-0.1,0.4,0c0.1,0,0.2,0.1,0.3,0.2C8.4,3.8,8.4,4,8.3,4.1z
			 M9.5,4C9.3,3.8,9.2,3.6,9.2,3.3s0.1-0.5,0.3-0.7c0.2-0.2,0.4-0.3,0.7-0.3s0.5,0.1,0.7,0.3c0.2,0.2,0.3,0.4,0.3,0.7
			c0,0.3-0.1,0.5-0.3,0.7c-0.2,0.2-0.4,0.3-0.7,0.3S9.7,4.2,9.5,4z M12.3,7.4c-0.2,0.2-0.4,0.3-0.7,0.3c-0.3,0-0.5-0.1-0.7-0.3
			c-0.2-0.2-0.3-0.4-0.3-0.7s0.1-0.5,0.3-0.7c0.2-0.2,0.4-0.3,0.7-0.3c0.3,0,0.5,0.1,0.7,0.3c0.2,0.2,0.3,0.4,0.3,0.7
			S12.5,7.2,12.3,7.4z"/>
	</g>
</g>
</svg>
